<svg width="24" height="24" viewBox="0 0 24 24" fill="none" xmlns="http://www.w3.org/2000/svg">
<rect width="24" height="24" rx="12" fill="#A18E80"/>
<path d="M12.114 12.2967C10.3783 12.2967 8.96565 10.884 8.96565 9.14833C8.96565 7.41264 10.3783 6 12.114 6C13.8497 6 15.2623 7.41264 15.2623 9.14833C15.2623 10.884 13.8497 12.2967 12.114 12.2967ZM12.114 6.8213C11.4973 6.82275 10.9062 7.06838 10.4701 7.50447C10.034 7.94056 9.7884 8.53161 9.78696 9.14833C9.7884 9.76505 10.034 10.3561 10.4701 10.7922C10.9062 11.2283 11.4973 11.4739 12.114 11.4754C12.7307 11.4739 13.3218 11.2283 13.7578 10.7922C14.1939 10.3561 14.4396 9.76505 14.441 9.14833C14.4396 8.53161 14.1939 7.94056 13.7578 7.50447C13.3218 7.06838 12.7307 6.82275 12.114 6.8213ZM7.41065 17.772C7.18616 17.772 7 17.5859 7 17.3614C7 15.0234 9.29418 13.118 12.114 13.118C12.667 13.118 13.2091 13.1891 13.7347 13.337C13.9537 13.3972 14.0796 13.6217 14.0194 13.8407C13.9592 14.0597 13.7347 14.1857 13.5157 14.1254C13.0667 13.9995 12.5958 13.9393 12.114 13.9393C9.74863 13.9393 7.8213 15.4724 7.8213 17.3614C7.8213 17.5859 7.63514 17.772 7.41065 17.772Z" fill="white"/>
<path d="M15.3986 17.7719C14.7563 17.7719 14.1372 17.5317 13.663 17.0984C13.4713 16.9342 13.3016 16.7316 13.1702 16.5071C12.9293 16.1129 12.7979 15.6475 12.7979 15.1711C12.7979 14.4867 13.0607 13.8461 13.5315 13.3588C14.0243 12.8496 14.6869 12.5703 15.3986 12.5703C16.1433 12.5703 16.8496 12.8879 17.3315 13.4354C17.7609 13.9116 17.9988 14.5299 17.9994 15.1711C17.9994 15.3792 17.9721 15.5872 17.9173 15.7843C17.8626 16.0307 17.7585 16.2881 17.6162 16.5126C17.1617 17.2901 16.3076 17.7719 15.3986 17.7719ZM15.3986 13.3916C15.0836 13.3909 14.7741 13.474 14.5018 13.6324C14.2295 13.7909 14.0044 14.0189 13.8494 14.2932C13.6944 14.5675 13.6152 14.878 13.62 15.193C13.6248 15.508 13.7133 15.816 13.8765 16.0855C13.9641 16.2388 14.0791 16.3757 14.2105 16.4907C14.539 16.7918 14.9606 16.9561 15.3986 16.9561C16.0174 16.9561 16.6032 16.6276 16.9208 16.0964C17.0139 15.9431 17.0851 15.7679 17.1234 15.5982C17.1617 15.4558 17.1781 15.3189 17.1781 15.1766C17.1781 14.7386 17.0139 14.317 16.7182 13.9884C16.3897 13.6052 15.9079 13.3916 15.3986 13.3916Z" fill="white"/>
<path d="M16.2192 15.5713H14.582C14.3575 15.5713 14.1714 15.3851 14.1714 15.1607C14.1714 14.9362 14.3575 14.75 14.582 14.75H16.2192C16.4437 14.75 16.6298 14.9362 16.6298 15.1607C16.6298 15.3851 16.4437 15.5713 16.2192 15.5713Z" fill="white"/>
<path d="M15.3984 16.4077C15.174 16.4077 14.9878 16.2215 14.9878 15.997V14.3599C14.9878 14.1354 15.174 13.9492 15.3984 13.9492C15.6229 13.9492 15.8091 14.1354 15.8091 14.3599V15.997C15.8091 16.227 15.6229 16.4077 15.3984 16.4077Z" fill="white"/>
</svg>
