<svg width="539" height="108" viewBox="0 0 539 108" fill="none" xmlns="http://www.w3.org/2000/svg">
<path d="M11.6305 106.5C20.4593 99.8858 40.5999 86.8228 50.5323 87.4842C62.9477 88.311 73.7078 98.2323 87.7787 98.2323C101.85 98.2323 113.751 72.6023 130.819 79.2166C167.54 93.4471 158.961 70.9489 192.069 79.2166C218.555 85.8307 243.386 77.563 252.49 72.6023C262.975 68.1929 291.723 59.87 322.845 61.8543C361.747 64.3346 393.199 61.8543 409.753 46.1456C415.154 41.0207 439.55 22.996 469.347 29.6102C499.144 36.2244 531.424 4.80709 536.391 1.5" stroke="#253154" stroke-width="3" stroke-linecap="round" stroke-linejoin="round"/>
<path d="M1.5 95.4076C8.57797 87.2409 29.8119 71.5076 58.1238 73.9076C93.5137 76.9076 105.507 92.2658 114.242 95.4076C145.082 106.5 140.026 95.4076 170.866 65.9076C215.434 23.2758 224.962 65.9076 249.735 65.9076C266.924 65.9076 272.723 32.929 322.537 44.9076C345.793 50.5 366.521 49.9076 377.138 36.9076C387.755 23.9076 420.617 13.9076 443.368 19.9076C466.118 25.9076 482.908 20.3549 488.364 16.9076C506.564 5.40758 520.214 14.4076 537.404 23.9076" stroke="#EE601D" stroke-width="3" stroke-linecap="round" stroke-linejoin="round"/>
</svg>
