<svg width="19" height="22" viewBox="0 0 19 22" fill="none" xmlns="http://www.w3.org/2000/svg">
<path d="M15.4141 8.21036C14.8967 7.53208 14.1166 7.13794 13.0354 7.00045V6.30383C13.0354 5.04809 12.5875 3.83818 11.7997 2.9949C11.0043 2.1333 9.96941 1.73 8.89592 1.84915C7.05017 2.05997 5.49786 4.17732 5.49786 6.46882V7.00045C4.41664 7.13794 3.63662 7.53208 3.11919 8.21036C2.37006 9.20025 2.39323 10.5202 2.47818 11.4368L3.01879 16.5422C3.18097 18.3296 3.79108 20.1628 7.11195 20.1628H11.4213C14.7422 20.1628 15.3523 18.3296 15.5145 16.5514L16.0551 11.4276C16.14 10.5202 16.1632 9.20025 15.4141 8.21036ZM9.00404 3.12323C9.77633 3.04073 10.51 3.32488 11.0815 3.939C11.6453 4.54396 11.9619 5.40556 11.9619 6.30383V6.94545H6.57135V6.46882C6.57135 4.83727 7.70662 3.26988 9.00404 3.12323ZM9.26662 17.028C7.65256 17.028 6.33966 15.4698 6.33966 13.5541C6.33966 11.6384 7.65256 10.0802 9.26662 10.0802C10.8807 10.0802 12.1936 11.6384 12.1936 13.5541C12.1936 15.4698 10.8807 17.028 9.26662 17.028Z" fill="#FF0000"/>
<path d="M8.82534 15.2529C8.67861 15.2529 8.53187 15.1887 8.41603 15.0512L7.65146 14.1438C7.4275 13.878 7.4275 13.438 7.65146 13.1722C7.87542 12.9064 8.24612 12.9064 8.47009 13.1722L8.84079 13.6122L10.0765 12.2556C10.3081 11.999 10.6789 12.0173 10.8951 12.2923C11.1113 12.5673 11.0959 13.0072 10.8642 13.2639L9.21921 15.0696C9.10337 15.1887 8.96436 15.2529 8.82534 15.2529Z" fill="#FF0000"/>
</svg>
