<svg width="17" height="18" viewBox="0 0 17 18" fill="none" xmlns="http://www.w3.org/2000/svg">
<path d="M16.6016 9.60929V11.6354C16.6016 12.1861 16.2197 12.6386 15.7466 12.6386H14.1446C13.2481 12.6386 12.4263 11.8616 12.3516 10.7994C12.3018 10.1797 12.501 9.59945 12.8496 9.19621C13.1568 8.82246 13.5801 8.60609 14.0449 8.60609H15.7466C16.2197 8.60609 16.6016 9.05851 16.6016 9.60929Z" fill="#FF0000"/>
<path d="M11.1065 10.9287C11.0317 9.89595 11.3472 8.88292 11.978 8.14527C12.5093 7.50597 13.2481 7.13223 14.0449 7.13223H14.5181C14.7505 7.13223 14.9414 6.90602 14.9082 6.63063C14.6841 4.72258 13.2896 3.24728 11.6211 3.24728H3.32032C1.48584 3.24728 0 5.0078 0 7.18141V14.0661C0 16.2397 1.48584 18.0003 3.32032 18.0003H11.6211C13.2979 18.0003 14.6841 16.525 14.9082 14.6169C14.9414 14.3415 14.7505 14.1153 14.5181 14.1153H14.1445C12.5674 14.1153 11.2393 12.7187 11.1065 10.9287ZM9.13087 8.90259H4.15039C3.81006 8.90259 3.52784 8.57802 3.52784 8.16494C3.52784 7.75185 3.81006 7.42729 4.15039 7.42729H9.13087C9.4712 7.42729 9.75343 7.76169 9.75343 8.16494C9.75343 8.56818 9.4712 8.90259 9.13087 8.90259Z" fill="#FF0000"/>
<path d="M10.1353 1.11139C10.3511 1.37694 10.1602 1.77036 9.84473 1.77036H3.34521C2.44042 1.77036 1.59374 2.08509 0.888175 2.62603C0.564445 2.87191 0.124503 2.60636 0.282218 2.18344C0.747062 0.895014 1.83447 0 3.08788 0H7.75293C8.71582 0 9.5708 0.403248 10.1353 1.11139Z" fill="#FF0000"/>
</svg>
