<svg width="47" height="37" viewBox="0 0 47 37" fill="none" xmlns="http://www.w3.org/2000/svg">
<path d="M14.7251 35.6427L0.823904 21.7502C0.29633 21.2218 0 20.5056 0 19.7589C0 19.0122 0.29633 18.296 0.823904 17.7676L2.51278 16.0765C3.04121 15.549 3.75738 15.2526 4.50408 15.2526C5.25078 15.2526 5.96698 15.549 6.4954 16.0765L16.6004 26.1751L40.3986 0.885363C40.9107 0.342022 41.6174 0.0240738 42.3637 0.00131159C43.11 -0.0214507 43.8348 0.252834 44.379 0.763956L46.1134 2.40079C46.6574 2.91295 46.9758 3.62016 46.9986 4.36697C47.0213 5.11378 46.7466 5.83906 46.2348 6.38341L18.775 35.5799C18.5164 35.8554 18.2051 36.0762 17.8595 36.229C17.5139 36.3818 17.1412 36.4636 16.7634 36.4695C16.3856 36.4753 16.0104 36.4052 15.6603 36.2631C15.3101 36.1211 14.9921 35.9101 14.7251 35.6427Z" fill="white"/>
</svg>
