<svg width="16" height="16" viewBox="0 0 16 16" fill="none" xmlns="http://www.w3.org/2000/svg">
<path d="M11.1953 9.06477C11.3229 8.72369 11.3877 8.36229 11.3864 7.99811C11.3864 7.18949 11.0652 6.41399 10.4934 5.84222C9.92163 5.27044 9.14613 4.94922 8.33751 4.94922C7.97782 4.94964 7.6211 5.01436 7.28418 5.14033L7.99974 5.87811C8.10851 5.86071 8.21847 5.85179 8.32862 5.85144C8.90037 5.85025 9.44937 6.07533 9.85573 6.47753C10.2621 6.87973 10.4928 7.42638 10.4975 7.99811C10.4971 8.10826 10.4882 8.21822 10.4708 8.327L11.1953 9.06477Z" fill="#C7D2D6"/>
<path d="M15.2399 7.7921C13.7421 5.02321 11.1154 3.34766 8.20877 3.34766C7.41737 3.34951 6.63129 3.47703 5.87988 3.72543L6.59544 4.44543C7.12248 4.30923 7.66442 4.23906 8.20877 4.23655C10.711 4.23655 12.9865 5.6321 14.3421 7.98321C13.8448 8.85548 13.1856 9.62481 12.3999 10.2499L13.031 10.881C13.9404 10.1474 14.6956 9.24108 15.2532 8.21432L15.3688 8.00099L15.2399 7.7921Z" fill="#C7D2D6"/>
<path d="M2.16428 2.56847L4.14651 4.55069C2.89358 5.35741 1.86957 6.47326 1.17317 7.79069L1.05762 7.99958L1.17317 8.21292C2.67095 10.9818 5.29762 12.6574 8.20428 12.6574C9.3388 12.6571 10.4586 12.4004 11.4798 11.9062L13.7021 14.1285L14.4798 13.4618L2.92428 1.90625L2.16428 2.56847ZM6.49762 6.9018L9.45317 9.85736C9.11923 10.0641 8.73479 10.1748 8.34206 10.1774C8.0567 10.1774 7.77415 10.1209 7.51067 10.0113C7.2472 9.90173 7.008 9.7411 6.80683 9.5387C6.60567 9.3363 6.44652 9.09612 6.33853 8.83197C6.23055 8.56783 6.17586 8.28494 6.17762 7.99958C6.18262 7.61139 6.29325 7.23189 6.49762 6.9018ZM5.85317 6.25736C5.43737 6.84376 5.24247 7.55838 5.303 8.27469C5.36353 8.991 5.67557 9.66278 6.18389 10.1711C6.6922 10.6794 7.36398 10.9914 8.08029 11.052C8.7966 11.1125 9.51122 10.9176 10.0976 10.5018L10.8087 11.2129C9.98552 11.5648 9.09954 11.7462 8.20428 11.7462C5.70206 11.7462 3.42651 10.3507 2.07095 7.99958C2.72149 6.84768 3.65838 5.88323 4.79095 5.19958L5.85317 6.25736Z" fill="#C7D2D6"/>
</svg>
