<svg width="29" height="20" viewBox="0 0 29 20" fill="none" xmlns="http://www.w3.org/2000/svg">
<path d="M7.34679 5.8485e-05C5.46473 5.8485e-05 3.58267 0.581838 2.14916 1.73398C-0.717873 4.03826 -0.714898 7.74101 2.14916 10.0477L14.2134 19.7667C14.2849 19.8261 14.3862 19.8603 14.4935 19.8603C14.5993 19.8603 14.7007 19.8261 14.7737 19.7667C18.8002 16.5305 22.8236 13.2931 26.8497 10.0568C29.7168 7.75251 29.7168 4.04743 26.8497 1.74303C23.9827 -0.561366 19.3216 -0.56125 16.4545 1.74303L14.4994 3.30357L12.5443 1.73392C11.1108 0.581779 9.22875 0 7.34669 0L7.34679 5.8485e-05ZM7.34679 0.575004C9.02319 0.575004 10.7041 1.09633 11.9962 2.13555L14.2255 3.93333C14.297 3.99265 14.3984 4.02687 14.5057 4.02687C14.6115 4.02687 14.7128 3.99265 14.7858 3.93333L17.0031 2.14466C19.5885 0.0662321 23.7042 0.0662321 26.2898 2.14466C28.8752 4.22308 28.8752 7.57697 26.2898 9.65534C22.3587 12.8151 18.4306 15.9772 14.4999 19.1372L2.70995 9.64629C0.127542 7.56559 0.124566 4.2131 2.70995 2.13561C4.0019 1.09639 5.67087 0.575063 7.34719 0.575063L7.34679 0.575004Z" fill="black"/>
</svg>
