<svg width="16" height="16" viewBox="0 0 16 16" fill="none" xmlns="http://www.w3.org/2000/svg">
<path d="M14.3501 14.3578C14.2568 14.4497 14.1311 14.5013 14.0001 14.5016C13.8673 14.501 13.7398 14.4496 13.6438 14.3578L10.9438 11.6516C9.80671 12.6067 8.34474 13.0859 6.86285 12.9894C5.38095 12.8928 3.99355 12.2278 2.99 11.1332C1.98645 10.0386 1.44424 8.59876 1.47645 7.11407C1.50867 5.62938 2.11282 4.21444 3.1629 3.16436C4.21298 2.11428 5.62791 1.51013 7.1126 1.47792C8.59729 1.44571 10.0371 1.98792 11.1317 2.99147C12.2264 3.99502 12.8913 5.38242 12.9879 6.86431C13.0845 8.34621 12.6052 9.80818 11.6501 10.9453L14.3501 13.6453C14.3973 13.6918 14.4349 13.7473 14.4605 13.8085C14.4861 13.8696 14.4993 13.9353 14.4993 14.0016C14.4993 14.0679 14.4861 14.1335 14.4605 14.1947C14.4349 14.2558 14.3973 14.3113 14.3501 14.3578ZM7.2501 12.0016C8.18956 12.0016 9.10792 11.723 9.88906 11.201C10.6702 10.6791 11.279 9.93726 11.6385 9.06931C11.998 8.20136 12.0921 7.24629 11.9088 6.32488C11.7255 5.40347 11.2732 4.5571 10.6089 3.8928C9.94455 3.22851 9.09819 2.77611 8.17678 2.59283C7.25537 2.40955 6.3003 2.50362 5.43235 2.86313C4.5644 3.22265 3.82255 3.83147 3.30062 4.6126C2.77868 5.39374 2.5001 6.3121 2.5001 7.25156C2.50175 8.51083 3.00273 9.71805 3.89317 10.6085C4.78361 11.4989 5.99083 11.9999 7.2501 12.0016Z" fill="white" fill-opacity="0.2"/>
</svg>
