<svg width="18" height="16" viewBox="0 0 18 16" fill="none" xmlns="http://www.w3.org/2000/svg">
<path d="M15 10.8313C14.24 10.8313 13.56 11.0621 13.04 11.4236L5.91 8.23115C5.96 8.05422 6 7.87729 6 7.69267C6 7.50804 5.96 7.33111 5.91 7.15418L12.96 3.99249C13.5 4.37713 14.21 4.6156 15 4.6156C16.66 4.6156 18 3.58478 18 2.3078C18 1.03082 16.66 0 15 0C13.34 0 12 1.03082 12 2.3078C12 2.49242 12.04 2.66936 12.09 2.84629L5.04 6.00797C4.5 5.62334 3.79 5.38487 3 5.38487C1.34 5.38487 0 6.41569 0 7.69267C0 8.96965 1.34 10.0005 3 10.0005C3.79 10.0005 4.5 9.762 5.04 9.37736L12.16 12.5775C12.11 12.7391 12.08 12.9083 12.08 13.0775C12.08 14.3161 13.39 15.3238 15 15.3238C16.61 15.3238 17.92 14.3161 17.92 13.0775C17.92 11.839 16.61 10.8313 15 10.8313Z" fill="#8C8787"/>
</svg>
