<svg width="871" height="61" viewBox="0 0 871 61" fill="none" xmlns="http://www.w3.org/2000/svg">
<g filter="url(#filter0_d_366_3974)">
<path d="M0 2.5C0 1.11929 1.11929 0 2.5 0H868.5C869.881 0 871 1.11929 871 2.5C871 3.88071 869.881 5 868.5 5H2.5C1.11929 5 0 3.88071 0 2.5Z" fill="#A18E80"/>
<path d="M0 16.5C0 15.1193 1.11929 14 2.5 14H868.5C869.881 14 871 15.1193 871 16.5C871 17.8807 869.881 19 868.5 19H2.5C1.11929 19 0 17.8807 0 16.5Z" fill="#A18E80"/>
<path d="M0 30.5C0 29.1193 1.11929 28 2.5 28H868.5C869.881 28 871 29.1193 871 30.5C871 31.8807 869.881 33 868.5 33H2.5C1.11929 33 0 31.8807 0 30.5Z" fill="#A18E80"/>
<path d="M0 44.5C0 43.1193 1.11929 42 2.5 42H868.5C869.881 42 871 43.1193 871 44.5C871 45.8807 869.881 47 868.5 47H2.5C1.11929 47 0 45.8807 0 44.5Z" fill="#A18E80"/>
<path d="M0 58.5C0 57.1193 1.11929 56 2.5 56H868.5C869.881 56 871 57.1193 871 58.5C871 59.8807 869.881 61 868.5 61H2.5C1.11929 61 0 59.8807 0 58.5Z" fill="#A18E80"/>
</g>
<defs>
<filter id="filter0_d_366_3974" x="-4" y="0" width="879" height="69" filterUnits="userSpaceOnUse" color-interpolation-filters="sRGB">
<feFlood flood-opacity="0" result="BackgroundImageFix"/>
<feColorMatrix in="SourceAlpha" type="matrix" values="0 0 0 0 0 0 0 0 0 0 0 0 0 0 0 0 0 0 127 0" result="hardAlpha"/>
<feOffset dy="4"/>
<feGaussianBlur stdDeviation="2"/>
<feComposite in2="hardAlpha" operator="out"/>
<feColorMatrix type="matrix" values="0 0 0 0 0 0 0 0 0 0 0 0 0 0 0 0 0 0 0.25 0"/>
<feBlend mode="normal" in2="BackgroundImageFix" result="effect1_dropShadow_366_3974"/>
<feBlend mode="normal" in="SourceGraphic" in2="effect1_dropShadow_366_3974" result="shape"/>
</filter>
</defs>
</svg>
