<svg width="109" height="109" viewBox="0 0 109 109" fill="none" xmlns="http://www.w3.org/2000/svg">
<path d="M54.5007 54.4993V0.5C84.3237 0.5 108.5 24.6763 108.5 54.4993C108.5 70.1187 101.737 84.973 89.9559 95.2284L54.5007 54.4993Z" fill="#E9BA50" stroke="white"/>
<path d="M54.5006 54.5L89.9557 95.2291C69.9214 112.669 40.1788 112.95 19.8193 95.8901L54.5006 54.5Z" fill="#557546" stroke="white"/>
<path d="M54.5006 54.4993L19.8194 95.8895C-3.03973 76.7355 -6.04341 42.6773 13.1105 19.8181C17.3351 14.7763 22.4453 10.5488 28.1894 7.34375L54.5006 54.4993Z" fill="#795D8D" stroke="white"/>
<path d="M54.5006 54.4978L28.1895 7.34218C33.1378 4.5812 38.4898 2.61627 44.0491 1.51953L54.5006 54.4978Z" fill="#507E7C" stroke="white"/>
<path d="M54.5006 54.4993L44.0491 1.5211C47.4915 0.841983 50.9919 0.5 54.5006 0.5V54.4993Z" fill="#A3542E" stroke="white"/>
</svg>
