<svg width="26" height="26" viewBox="0 0 26 26" fill="none" xmlns="http://www.w3.org/2000/svg">
<path d="M6.41996 15.467L5.59721 18.5385L2.59008 18.6021C1.69139 16.9352 1.18164 15.0281 1.18164 13.0015C1.18164 11.0417 1.65825 9.19367 2.50306 7.56641H2.50371L5.1809 8.05723L6.35366 10.7184C6.10821 11.434 5.97442 12.2021 5.97442 13.0015C5.97451 13.869 6.13166 14.7002 6.41996 15.467Z" fill="#FBBB00"/>
<path d="M24.6116 10.793C24.7474 11.5079 24.8181 12.2462 24.8181 13.0008C24.8181 13.8469 24.7292 14.6722 24.5597 15.4683C23.9844 18.1774 22.4811 20.543 20.3987 22.217L20.398 22.2163L17.026 22.0443L16.5487 19.065C17.9305 18.2547 19.0104 16.9865 19.5793 15.4683H13.2598V10.793H19.6715H24.6116Z" fill="#518EF8"/>
<path d="M20.3981 22.2187L20.3988 22.2194C18.3735 23.8473 15.8007 24.8213 13.0001 24.8213C8.49942 24.8213 4.58645 22.3058 2.59033 18.6038L6.42021 15.4688C7.41824 18.1324 9.98773 20.0285 13.0001 20.0285C14.2949 20.0285 15.5079 19.6785 16.5488 19.0674L20.3981 22.2187Z" fill="#28B446"/>
<path d="M20.5432 3.90436L16.7146 7.03876C15.6374 6.36541 14.364 5.97642 12.9997 5.97642C9.91916 5.97642 7.30162 7.95952 6.35358 10.7187L2.50358 7.5667H2.50293C4.46983 3.7745 8.43215 1.18359 12.9997 1.18359C15.8672 1.18359 18.4964 2.20504 20.5432 3.90436Z" fill="#F14336"/>
</svg>
