<svg width="11" height="9" viewBox="0 0 11 9" fill="none" xmlns="http://www.w3.org/2000/svg">
<path d="M0.699919 -0.000626513C0.522013 -0.000626513 0.344107 0.0771661 0.203655 0.243862C-0.0678851 0.56614 -0.0678851 1.09957 0.203655 1.42184L3.19994 4.97802C3.34975 5.15583 3.54638 5.24473 3.76174 5.22251C3.96774 5.20028 4.15501 5.06692 4.27673 4.85578C4.77025 3.97449 5.99246 3.85823 6.64329 4.63066L8.62138 6.97837C8.89292 7.30065 9.34237 7.30065 9.61391 6.97837C9.88545 6.65609 9.88545 6.12266 9.61391 5.80039L5.68125 1.1329C5.53144 0.955096 5.33481 0.866193 5.11945 0.888419C4.91345 0.910645 4.72618 1.044 4.60446 1.25515C4.11094 2.13644 2.88873 2.25269 2.23791 1.48026L1.19618 0.243862C1.05573 0.0771661 0.877825 -0.000626513 0.699919 -0.000626513Z" fill="#FF0000"/>
<path d="M10.2977 4.88517C9.91384 4.88517 9.59548 5.26301 9.59548 5.71865V5.93735C9.59548 6.58376 9.07146 7.10778 8.42505 7.10778C8.04114 7.10778 7.72279 7.48562 7.72279 7.94126C7.72279 8.39689 8.04114 8.77474 8.42505 8.77474H10.2977C10.6816 8.77474 11 8.39689 11 7.94126V5.71865C11 5.26301 10.6816 4.88517 10.2977 4.88517Z" fill="#FF0000"/>
</svg>
