<svg width="10" height="7" viewBox="0 0 10 7" fill="none" xmlns="http://www.w3.org/2000/svg">
<path d="M0.712925 6.85734C0.531714 6.85734 0.350502 6.78346 0.20744 6.62516C-0.0691466 6.3191 -0.0691466 5.81251 0.20744 5.50645L3.2594 2.12923C3.412 1.96037 3.61229 1.87594 3.83165 1.89705C4.04147 1.91816 4.23222 2.0448 4.35621 2.24532C4.87355 3.10665 6.07584 3.22363 6.74951 2.47817L8.78159 0.229545C9.05818 -0.0765151 9.51597 -0.0765151 9.79256 0.229545C10.0691 0.535606 10.0691 1.04219 9.79256 1.34825L5.78683 5.78085C5.63423 5.94971 5.43394 6.03414 5.21458 6.01304C5.00476 5.99193 4.81401 5.86528 4.69002 5.66476C4.17268 4.80343 2.97039 4.68646 2.29673 5.43192L1.21841 6.62516C1.07535 6.78346 0.894137 6.85734 0.712925 6.85734Z" fill="#16C098"/>
</svg>
