<svg width="24" height="24" viewBox="0 0 24 24" fill="none" xmlns="http://www.w3.org/2000/svg">
<rect width="24" height="24" rx="12" fill="#A18E80"/>
<path d="M16.5844 8.66234V13.987C16.5844 15.5844 15.7857 16.6493 13.9221 16.6493H9.66234C7.7987 16.6493 7 15.5844 7 13.987V8.66234C7 7.06493 7.7987 6 9.66234 6H13.9221C15.7857 6 16.5844 7.06493 16.5844 8.66234Z" stroke="white" stroke-miterlimit="10" stroke-linecap="round" stroke-linejoin="round"/>
<path d="M13.1249 7.33203V8.39697C13.1249 8.98268 13.6041 9.4619 14.1898 9.4619H15.2547M9.66382 11.858H11.7937M9.66382 13.9879H13.9236" stroke="white" stroke-miterlimit="10" stroke-linecap="round" stroke-linejoin="round"/>
<g clip-path="url(#clip0_0_30)">
<rect x="12.3252" y="11.8555" width="5.85714" height="5.85714" rx="2.92857" fill="#A18E80"/>
<path d="M15.2538 17.7126C14.2314 17.7126 13.2677 17.1695 12.7458 16.2909C12.469 15.8436 12.3252 15.3218 12.3252 14.784C12.3252 13.1707 13.6404 11.8555 15.2538 11.8555C16.8671 11.8555 18.1823 13.1707 18.1823 14.784C18.1823 15.3218 18.0332 15.8436 17.7564 16.2962C17.2399 17.1695 16.2814 17.7126 15.2538 17.7126ZM15.2538 12.6542C14.077 12.6542 13.1239 13.6073 13.1239 14.784C13.1239 15.1727 13.2304 15.5508 13.4327 15.8756C13.6208 16.1912 13.8873 16.4527 14.2065 16.6346C14.5256 16.8166 14.8864 16.9128 15.2538 16.9139C16.0099 16.9139 16.6914 16.5305 17.0748 15.8809C17.2771 15.5508 17.3836 15.1727 17.3836 14.784C17.3836 13.6073 16.4305 12.6542 15.2538 12.6542Z" fill="white"/>
<path d="M16.2017 15.1737H14.3115C14.0931 15.1737 13.9121 14.9927 13.9121 14.7744C13.9121 14.556 14.0931 14.375 14.3115 14.375H16.2017C16.42 14.375 16.6011 14.556 16.6011 14.7744C16.6011 14.9927 16.42 15.1737 16.2017 15.1737Z" fill="white"/>
<path d="M15.2538 16.1368C15.0355 16.1368 14.8545 15.9557 14.8545 15.7374V13.8525C14.8545 13.6342 15.0355 13.4531 15.2538 13.4531C15.4722 13.4531 15.6532 13.6342 15.6532 13.8525V15.7427C15.6532 15.961 15.4775 16.1368 15.2538 16.1368Z" fill="white"/>
</g>
<defs>
<clipPath id="clip0_0_30">
<rect x="12.3252" y="11.8555" width="5.85714" height="5.85714" rx="2.92857" fill="white"/>
</clipPath>
</defs>
</svg>
