<svg width="25" height="30" viewBox="0 0 25 30" fill="none" xmlns="http://www.w3.org/2000/svg">
<path opacity="0.4" d="M16.8639 2.47225H8.13475C4.34308 2.47225 2.08266 5.15503 2.08266 9.65518V20.0031C2.08266 24.5156 4.34308 27.1983 8.13475 27.1983H16.8535C20.6452 27.1983 22.9056 24.5156 22.9056 20.0154V9.65518C22.916 5.15503 20.6556 2.47225 16.8639 2.47225Z" fill="#EBEBEB"/>
<path d="M12.5004 16.0739C11.917 16.0739 11.4587 15.5176 11.4587 14.8376C11.4587 14.1577 11.9274 13.6013 12.5004 13.6013C13.0733 13.6013 13.542 14.1577 13.542 14.8376C13.542 15.5176 13.0837 16.0739 12.5004 16.0739Z" fill="#292D32"/>
<path d="M16.6673 16.0739C16.084 16.0739 15.6256 15.5176 15.6256 14.8376C15.6256 14.1577 16.0944 13.6013 16.6673 13.6013C17.2402 13.6013 17.709 14.1577 17.709 14.8376C17.709 15.5176 17.2506 16.0739 16.6673 16.0739Z" fill="#292D32"/>
<path d="M8.33343 16.0739C7.7501 16.0739 7.29176 15.5176 7.29176 14.8376C7.29176 14.1577 7.76051 13.6013 8.33343 13.6013C8.90635 13.6013 9.3751 14.1577 9.3751 14.8376C9.3751 15.5176 8.91676 16.0739 8.33343 16.0739Z" fill="#292D32"/>
</svg>
