<svg width="20" height="20" viewBox="0 0 20 20" fill="none" xmlns="http://www.w3.org/2000/svg">
<path d="M13.4916 1.66797H6.50829C3.47496 1.66797 1.66663 3.4763 1.66663 6.50964V13.4846C1.66663 16.5263 3.47496 18.3346 6.50829 18.3346H13.4833C16.5166 18.3346 18.325 16.5263 18.325 13.493V6.50964C18.3333 3.4763 16.525 1.66797 13.4916 1.66797ZM8.25829 13.493C8.25829 14.0263 7.82496 14.4596 7.28329 14.4596C6.74996 14.4596 6.31663 14.0263 6.31663 13.493V10.7763C6.31663 10.243 6.74996 9.80964 7.28329 9.80964C7.82496 9.80964 8.25829 10.243 8.25829 10.7763V13.493ZM13.6833 13.493C13.6833 14.0263 13.25 14.4596 12.7166 14.4596C12.175 14.4596 11.7416 14.0263 11.7416 13.493V6.50964C11.7416 5.9763 12.175 5.54297 12.7166 5.54297C13.25 5.54297 13.6833 5.9763 13.6833 6.50964V13.493Z" fill="#A18E80"/>
</svg>
