<svg width="356" height="114" viewBox="0 0 356 114" fill="none" xmlns="http://www.w3.org/2000/svg">
<path d="M356 111.794V113.109L351.433 113.118V111.812L356 111.794Z" fill="black"/>
<path d="M349.492 111.794V113.109L344.926 113.118V111.812L349.492 111.794Z" fill="black"/>
<path d="M342.984 111.794V113.109L338.417 113.118V111.812L342.984 111.794Z" fill="black"/>
<path d="M336.476 111.794V113.109L331.91 113.118V111.812L336.476 111.794Z" fill="black"/>
<path d="M329.968 111.794V113.109L325.401 113.118V111.812L329.968 111.794Z" fill="black"/>
<path d="M323.46 111.794V113.109L318.893 113.118V111.812L323.46 111.794Z" fill="black"/>
<path d="M316.952 111.794V113.109L312.385 113.118V111.812L316.952 111.794Z" fill="black"/>
<path d="M310.444 111.794V113.109L305.877 113.118V111.812L310.444 111.794Z" fill="black"/>
<path d="M303.936 111.794V113.109L299.369 113.118V111.812L303.936 111.794Z" fill="black"/>
<path d="M297.428 111.794V113.109L292.861 113.118V111.812L297.428 111.794Z" fill="black"/>
<path d="M290.92 111.794V113.109L286.353 113.118V111.812L290.92 111.794Z" fill="black"/>
<path d="M284.412 111.794V113.109L279.845 113.118V111.812L284.412 111.794Z" fill="black"/>
<path d="M277.904 111.794V113.109L273.337 113.118V111.812L277.904 111.794Z" fill="black"/>
<path d="M271.396 111.794V113.109L266.829 113.118V111.812L271.396 111.794Z" fill="black"/>
<path d="M264.888 111.794V113.109L260.321 113.118V111.812L264.888 111.794Z" fill="black"/>
<path d="M258.38 111.794V113.109L253.813 113.118V111.812L258.38 111.794Z" fill="black"/>
<path d="M251.872 111.794V113.109L247.305 113.118V111.812L251.872 111.794Z" fill="black"/>
<path d="M245.364 111.794V113.109L240.797 113.118V111.812L245.364 111.794Z" fill="black"/>
<path d="M238.856 111.794V113.109L234.289 113.118V111.812L238.856 111.794Z" fill="black"/>
<path d="M232.348 111.794V113.109L227.781 113.118V111.812L232.348 111.794Z" fill="black"/>
<path d="M225.839 111.794V113.109L221.273 113.118V111.812L225.839 111.794Z" fill="black"/>
<path d="M219.332 111.794V113.109L214.765 113.118V111.812L219.332 111.794Z" fill="black"/>
<path d="M212.824 111.794V113.109L208.257 113.118V111.812L212.824 111.794Z" fill="black"/>
<path d="M206.316 111.794V113.109L201.749 113.118V111.812L206.316 111.794Z" fill="black"/>
<path d="M199.808 111.794V113.109L195.241 113.118V111.812L199.808 111.794Z" fill="black"/>
<path d="M193.299 111.794V113.109L188.733 113.118V111.812L193.299 111.794Z" fill="black"/>
<path d="M186.792 111.794V113.109L182.225 113.118V111.812L186.792 111.794Z" fill="black"/>
<path d="M180.283 111.794V113.109L175.717 113.118V111.812L180.283 111.794Z" fill="black"/>
<path d="M173.776 111.794V113.109L169.209 113.118V111.812L173.776 111.794Z" fill="black"/>
<path d="M167.267 111.794V113.109L162.701 113.118V111.812L167.267 111.794Z" fill="black"/>
<path d="M160.759 111.794V113.109L156.192 113.118V111.812L160.759 111.794Z" fill="black"/>
<path d="M154.251 111.794V113.109L149.685 113.118V111.812L154.251 111.794Z" fill="black"/>
<path d="M147.743 111.794V113.109L143.177 113.118V111.812L147.743 111.794Z" fill="black"/>
<path d="M141.235 111.794V113.109L136.669 113.118V111.812L141.235 111.794Z" fill="black"/>
<path d="M134.727 111.794V113.109L130.161 113.118V111.812L134.727 111.794Z" fill="black"/>
<path d="M128.219 111.794V113.109L123.652 113.118V111.812L128.219 111.794Z" fill="black"/>
<path d="M121.711 111.794V113.109L117.145 113.118V111.812L121.711 111.794Z" fill="black"/>
<path d="M115.203 111.794V113.109L110.636 113.118V111.812L115.203 111.794Z" fill="black"/>
<path d="M108.695 111.794V113.109L104.129 113.118V111.812L108.695 111.794Z" fill="black"/>
<path d="M102.187 111.794V113.109L97.6204 113.118V111.812L102.187 111.794Z" fill="black"/>
<path d="M95.6789 111.794V113.109L91.1122 113.118V111.812L95.6789 111.794Z" fill="black"/>
<path d="M89.1712 111.794V113.109L84.6045 113.118V111.812L89.1712 111.794Z" fill="black"/>
<path d="M82.663 111.794V113.109L78.0962 113.118V111.812L82.663 111.794Z" fill="black"/>
<path d="M76.1552 111.794V113.109L71.5885 113.118V111.812L76.1552 111.794Z" fill="black"/>
<path d="M69.647 111.794V113.109L65.0803 113.118V111.812L69.647 111.794Z" fill="black"/>
<path d="M63.1388 111.794V113.109L58.5721 113.118V111.812L63.1388 111.794Z" fill="black"/>
<path d="M56.631 111.794V113.109L52.0643 113.118V111.812L56.631 111.794Z" fill="black"/>
<path d="M50.1228 111.794V113.109L45.5561 113.118V111.812L50.1228 111.794Z" fill="black"/>
<path d="M43.6151 111.794V113.109L39.0484 113.118V111.812L43.6151 111.794Z" fill="black"/>
<path d="M37.1069 111.794V113.109L32.5401 113.118V111.812L37.1069 111.794Z" fill="black"/>
<path d="M30.5986 111.794V113.109L26.0319 113.118V111.812L30.5986 111.794Z" fill="black"/>
<path d="M24.0909 111.794V113.109L19.5242 113.118V111.812L24.0909 111.794Z" fill="black"/>
<path d="M17.5827 111.794V113.109L13.016 113.118V111.812L17.5827 111.794Z" fill="black"/>
<path d="M11.0749 111.794V113.109L6.50822 113.118V111.812L11.0749 111.794Z" fill="black"/>
<path d="M4.56671 111.794V113.109L0 113.118V111.812L4.56671 111.794Z" fill="black"/>
<path d="M356 85.7729V87.088L351.433 87.097V85.7909L356 85.7729Z" fill="black"/>
<path d="M349.492 85.7729V87.088L344.926 87.097V85.7909L349.492 85.7729Z" fill="black"/>
<path d="M342.984 85.7729V87.088L338.417 87.097V85.7909L342.984 85.7729Z" fill="black"/>
<path d="M336.476 85.7729V87.088L331.91 87.097V85.7909L336.476 85.7729Z" fill="black"/>
<path d="M329.968 85.7729V87.088L325.401 87.097V85.7909L329.968 85.7729Z" fill="black"/>
<path d="M323.46 85.7729V87.088L318.893 87.097V85.7909L323.46 85.7729Z" fill="black"/>
<path d="M316.952 85.7729V87.088L312.385 87.097V85.7909L316.952 85.7729Z" fill="black"/>
<path d="M310.444 85.7729V87.088L305.877 87.097V85.7909L310.444 85.7729Z" fill="black"/>
<path d="M303.936 85.7729V87.088L299.369 87.097V85.7909L303.936 85.7729Z" fill="black"/>
<path d="M297.428 85.7729V87.088L292.861 87.097V85.7909L297.428 85.7729Z" fill="black"/>
<path d="M290.92 85.7729V87.088L286.353 87.097V85.7909L290.92 85.7729Z" fill="black"/>
<path d="M284.412 85.7729V87.088L279.845 87.097V85.7909L284.412 85.7729Z" fill="black"/>
<path d="M277.904 85.7729V87.088L273.337 87.097V85.7909L277.904 85.7729Z" fill="black"/>
<path d="M271.396 85.7729V87.088L266.829 87.097V85.7909L271.396 85.7729Z" fill="black"/>
<path d="M264.888 85.7729V87.088L260.321 87.097V85.7909L264.888 85.7729Z" fill="black"/>
<path d="M258.38 85.7729V87.088L253.813 87.097V85.7909L258.38 85.7729Z" fill="black"/>
<path d="M251.872 85.7729V87.088L247.305 87.097V85.7909L251.872 85.7729Z" fill="black"/>
<path d="M245.364 85.7729V87.088L240.797 87.097V85.7909L245.364 85.7729Z" fill="black"/>
<path d="M238.856 85.7729V87.088L234.289 87.097V85.7909L238.856 85.7729Z" fill="black"/>
<path d="M232.348 85.7729V87.088L227.781 87.097V85.7909L232.348 85.7729Z" fill="black"/>
<path d="M225.839 85.7729V87.088L221.273 87.097V85.7909L225.839 85.7729Z" fill="black"/>
<path d="M219.332 85.7729V87.088L214.765 87.097V85.7909L219.332 85.7729Z" fill="black"/>
<path d="M212.824 85.7729V87.088L208.257 87.097V85.7909L212.824 85.7729Z" fill="black"/>
<path d="M206.316 85.7729V87.088L201.749 87.097V85.7909L206.316 85.7729Z" fill="black"/>
<path d="M199.808 85.7729V87.088L195.241 87.097V85.7909L199.808 85.7729Z" fill="black"/>
<path d="M193.299 85.7729V87.088L188.733 87.097V85.7909L193.299 85.7729Z" fill="black"/>
<path d="M186.792 85.7729V87.088L182.225 87.097V85.7909L186.792 85.7729Z" fill="black"/>
<path d="M180.283 85.7729V87.088L175.717 87.097V85.7909L180.283 85.7729Z" fill="black"/>
<path d="M173.776 85.7729V87.088L169.209 87.097V85.7909L173.776 85.7729Z" fill="black"/>
<path d="M167.267 85.7729V87.088L162.701 87.097V85.7909L167.267 85.7729Z" fill="black"/>
<path d="M160.759 85.7729V87.088L156.192 87.097V85.7909L160.759 85.7729Z" fill="black"/>
<path d="M154.251 85.7729V87.088L149.685 87.097V85.7909L154.251 85.7729Z" fill="black"/>
<path d="M147.743 85.7729V87.088L143.177 87.097V85.7909L147.743 85.7729Z" fill="black"/>
<path d="M141.235 85.7729V87.088L136.669 87.097V85.7909L141.235 85.7729Z" fill="black"/>
<path d="M134.727 85.7729V87.088L130.161 87.097V85.7909L134.727 85.7729Z" fill="black"/>
<path d="M128.219 85.7729V87.088L123.652 87.097V85.7909L128.219 85.7729Z" fill="black"/>
<path d="M121.711 85.7729V87.088L117.145 87.097V85.7909L121.711 85.7729Z" fill="black"/>
<path d="M115.203 85.7729V87.088L110.636 87.097V85.7909L115.203 85.7729Z" fill="black"/>
<path d="M108.695 85.7729V87.088L104.129 87.097V85.7909L108.695 85.7729Z" fill="black"/>
<path d="M102.187 85.7729V87.088L97.6204 87.097V85.7909L102.187 85.7729Z" fill="black"/>
<path d="M95.6789 85.7729V87.088L91.1122 87.097V85.7909L95.6789 85.7729Z" fill="black"/>
<path d="M89.1712 85.7729V87.088L84.6045 87.097V85.7909L89.1712 85.7729Z" fill="black"/>
<path d="M82.663 85.7729V87.088L78.0962 87.097V85.7909L82.663 85.7729Z" fill="black"/>
<path d="M76.1552 85.7729V87.088L71.5885 87.097V85.7909L76.1552 85.7729Z" fill="black"/>
<path d="M69.647 85.7729V87.088L65.0803 87.097V85.7909L69.647 85.7729Z" fill="black"/>
<path d="M63.1388 85.7729V87.088L58.5721 87.097V85.7909L63.1388 85.7729Z" fill="black"/>
<path d="M56.631 85.7729V87.088L52.0643 87.097V85.7909L56.631 85.7729Z" fill="black"/>
<path d="M50.1228 85.7729V87.088L45.5561 87.097V85.7909L50.1228 85.7729Z" fill="black"/>
<path d="M43.6151 85.7729V87.088L39.0484 87.097V85.7909L43.6151 85.7729Z" fill="black"/>
<path d="M37.1069 85.7729V87.088L32.5401 87.097V85.7909L37.1069 85.7729Z" fill="black"/>
<path d="M30.5986 85.7729V87.088L26.0319 87.097V85.7909L30.5986 85.7729Z" fill="black"/>
<path d="M24.0909 85.7729V87.088L19.5242 87.097V85.7909L24.0909 85.7729Z" fill="black"/>
<path d="M17.5827 85.7729V87.088L13.016 87.097V85.7909L17.5827 85.7729Z" fill="black"/>
<path d="M11.0749 85.7729V87.088L6.50822 87.097V85.7909L11.0749 85.7729Z" fill="black"/>
<path d="M4.56671 85.7729V87.088L0 87.097V85.7909L4.56671 85.7729Z" fill="black"/>
<path d="M356 59.7517V61.0668L351.433 61.0758V59.7697L356 59.7517Z" fill="black"/>
<path d="M349.492 59.7517V61.0668L344.926 61.0758V59.7697L349.492 59.7517Z" fill="black"/>
<path d="M342.984 59.7517V61.0668L338.417 61.0758V59.7697L342.984 59.7517Z" fill="black"/>
<path d="M336.476 59.7517V61.0668L331.91 61.0758V59.7697L336.476 59.7517Z" fill="black"/>
<path d="M329.968 59.7517V61.0668L325.401 61.0758V59.7697L329.968 59.7517Z" fill="black"/>
<path d="M323.46 59.7517V61.0668L318.893 61.0758V59.7697L323.46 59.7517Z" fill="black"/>
<path d="M316.952 59.7517V61.0668L312.385 61.0758V59.7697L316.952 59.7517Z" fill="black"/>
<path d="M310.444 59.7517V61.0668L305.877 61.0758V59.7697L310.444 59.7517Z" fill="black"/>
<path d="M303.936 59.7517V61.0668L299.369 61.0758V59.7697L303.936 59.7517Z" fill="black"/>
<path d="M297.428 59.7517V61.0668L292.861 61.0758V59.7697L297.428 59.7517Z" fill="black"/>
<path d="M290.92 59.7517V61.0668L286.353 61.0758V59.7697L290.92 59.7517Z" fill="black"/>
<path d="M284.412 59.7517V61.0668L279.845 61.0758V59.7697L284.412 59.7517Z" fill="black"/>
<path d="M277.904 59.7517V61.0668L273.337 61.0758V59.7697L277.904 59.7517Z" fill="black"/>
<path d="M271.396 59.7517V61.0668L266.829 61.0758V59.7697L271.396 59.7517Z" fill="black"/>
<path d="M264.888 59.7517V61.0668L260.321 61.0758V59.7697L264.888 59.7517Z" fill="black"/>
<path d="M258.38 59.7517V61.0668L253.813 61.0758V59.7697L258.38 59.7517Z" fill="black"/>
<path d="M251.872 59.7517V61.0668L247.305 61.0758V59.7697L251.872 59.7517Z" fill="black"/>
<path d="M245.364 59.7517V61.0668L240.797 61.0758V59.7697L245.364 59.7517Z" fill="black"/>
<path d="M238.856 59.7517V61.0668L234.289 61.0758V59.7697L238.856 59.7517Z" fill="black"/>
<path d="M232.348 59.7517V61.0668L227.781 61.0758V59.7697L232.348 59.7517Z" fill="black"/>
<path d="M225.839 59.7517V61.0668L221.273 61.0758V59.7697L225.839 59.7517Z" fill="black"/>
<path d="M219.332 59.7517V61.0668L214.765 61.0758V59.7697L219.332 59.7517Z" fill="black"/>
<path d="M212.824 59.7517V61.0668L208.257 61.0758V59.7697L212.824 59.7517Z" fill="black"/>
<path d="M206.316 59.7517V61.0668L201.749 61.0758V59.7697L206.316 59.7517Z" fill="black"/>
<path d="M199.808 59.7517V61.0668L195.241 61.0758V59.7697L199.808 59.7517Z" fill="black"/>
<path d="M193.299 59.7517V61.0668L188.733 61.0758V59.7697L193.299 59.7517Z" fill="black"/>
<path d="M186.792 59.7517V61.0668L182.225 61.0758V59.7697L186.792 59.7517Z" fill="black"/>
<path d="M180.283 59.7517V61.0668L175.717 61.0758V59.7697L180.283 59.7517Z" fill="black"/>
<path d="M173.776 59.7517V61.0668L169.209 61.0758V59.7697L173.776 59.7517Z" fill="black"/>
<path d="M167.267 59.7517V61.0668L162.701 61.0758V59.7697L167.267 59.7517Z" fill="black"/>
<path d="M160.759 59.7517V61.0668L156.192 61.0758V59.7697L160.759 59.7517Z" fill="black"/>
<path d="M154.251 59.7517V61.0668L149.685 61.0758V59.7697L154.251 59.7517Z" fill="black"/>
<path d="M147.743 59.7517V61.0668L143.177 61.0758V59.7697L147.743 59.7517Z" fill="black"/>
<path d="M141.235 59.7517V61.0668L136.669 61.0758V59.7697L141.235 59.7517Z" fill="black"/>
<path d="M134.727 59.7517V61.0668L130.161 61.0758V59.7697L134.727 59.7517Z" fill="black"/>
<path d="M128.219 59.7517V61.0668L123.652 61.0758V59.7697L128.219 59.7517Z" fill="black"/>
<path d="M121.711 59.7517V61.0668L117.145 61.0758V59.7697L121.711 59.7517Z" fill="black"/>
<path d="M115.203 59.7517V61.0668L110.636 61.0758V59.7697L115.203 59.7517Z" fill="black"/>
<path d="M108.695 59.7517V61.0668L104.129 61.0758V59.7697L108.695 59.7517Z" fill="black"/>
<path d="M102.187 59.7517V61.0668L97.6204 61.0758V59.7697L102.187 59.7517Z" fill="black"/>
<path d="M95.6789 59.7517V61.0668L91.1122 61.0758V59.7697L95.6789 59.7517Z" fill="black"/>
<path d="M89.1712 59.7517V61.0668L84.6045 61.0758V59.7697L89.1712 59.7517Z" fill="black"/>
<path d="M82.663 59.7517V61.0668L78.0962 61.0758V59.7697L82.663 59.7517Z" fill="black"/>
<path d="M76.1552 59.7517V61.0668L71.5885 61.0758V59.7697L76.1552 59.7517Z" fill="black"/>
<path d="M69.647 59.7517V61.0668L65.0803 61.0758V59.7697L69.647 59.7517Z" fill="black"/>
<path d="M63.1388 59.7517V61.0668L58.5721 61.0758V59.7697L63.1388 59.7517Z" fill="black"/>
<path d="M56.631 59.7517V61.0668L52.0643 61.0758V59.7697L56.631 59.7517Z" fill="black"/>
<path d="M50.1228 59.7517V61.0668L45.5561 61.0758V59.7697L50.1228 59.7517Z" fill="black"/>
<path d="M43.6151 59.7517V61.0668L39.0484 61.0758V59.7697L43.6151 59.7517Z" fill="black"/>
<path d="M37.1069 59.7517V61.0668L32.5401 61.0758V59.7697L37.1069 59.7517Z" fill="black"/>
<path d="M30.5986 59.7517V61.0668L26.0319 61.0758V59.7697L30.5986 59.7517Z" fill="black"/>
<path d="M24.0909 59.7517V61.0668L19.5242 61.0758V59.7697L24.0909 59.7517Z" fill="black"/>
<path d="M17.5827 59.7517V61.0668L13.016 61.0758V59.7697L17.5827 59.7517Z" fill="black"/>
<path d="M11.0749 59.7517V61.0668L6.50822 61.0758V59.7697L11.0749 59.7517Z" fill="black"/>
<path d="M4.56671 59.7517V61.0668L0 61.0758V59.7697L4.56671 59.7517Z" fill="black"/>
<path d="M356 33.7306V35.0456L351.433 35.0546V33.7486L356 33.7306Z" fill="black"/>
<path d="M349.492 33.7306V35.0456L344.926 35.0546V33.7486L349.492 33.7306Z" fill="black"/>
<path d="M342.984 33.7306V35.0456L338.417 35.0546V33.7486L342.984 33.7306Z" fill="black"/>
<path d="M336.476 33.7306V35.0456L331.91 35.0546V33.7486L336.476 33.7306Z" fill="black"/>
<path d="M329.968 33.7306V35.0456L325.401 35.0546V33.7486L329.968 33.7306Z" fill="black"/>
<path d="M323.46 33.7306V35.0456L318.893 35.0546V33.7486L323.46 33.7306Z" fill="black"/>
<path d="M316.952 33.7306V35.0456L312.385 35.0546V33.7486L316.952 33.7306Z" fill="black"/>
<path d="M310.444 33.7306V35.0456L305.877 35.0546V33.7486L310.444 33.7306Z" fill="black"/>
<path d="M303.936 33.7306V35.0456L299.369 35.0546V33.7486L303.936 33.7306Z" fill="black"/>
<path d="M297.428 33.7306V35.0456L292.861 35.0546V33.7486L297.428 33.7306Z" fill="black"/>
<path d="M290.92 33.7306V35.0456L286.353 35.0546V33.7486L290.92 33.7306Z" fill="black"/>
<path d="M284.412 33.7306V35.0456L279.845 35.0546V33.7486L284.412 33.7306Z" fill="black"/>
<path d="M277.904 33.7306V35.0456L273.337 35.0546V33.7486L277.904 33.7306Z" fill="black"/>
<path d="M271.396 33.7306V35.0456L266.829 35.0546V33.7486L271.396 33.7306Z" fill="black"/>
<path d="M264.888 33.7306V35.0456L260.321 35.0546V33.7486L264.888 33.7306Z" fill="black"/>
<path d="M258.38 33.7306V35.0456L253.813 35.0546V33.7486L258.38 33.7306Z" fill="black"/>
<path d="M251.872 33.7306V35.0456L247.305 35.0546V33.7486L251.872 33.7306Z" fill="black"/>
<path d="M245.364 33.7306V35.0456L240.797 35.0546V33.7486L245.364 33.7306Z" fill="black"/>
<path d="M238.856 33.7306V35.0456L234.289 35.0546V33.7486L238.856 33.7306Z" fill="black"/>
<path d="M232.348 33.7306V35.0456L227.781 35.0546V33.7486L232.348 33.7306Z" fill="black"/>
<path d="M225.839 33.7306V35.0456L221.273 35.0546V33.7486L225.839 33.7306Z" fill="black"/>
<path d="M219.332 33.7306V35.0456L214.765 35.0546V33.7486L219.332 33.7306Z" fill="black"/>
<path d="M212.824 33.7306V35.0456L208.257 35.0546V33.7486L212.824 33.7306Z" fill="black"/>
<path d="M206.316 33.7306V35.0456L201.749 35.0546V33.7486L206.316 33.7306Z" fill="black"/>
<path d="M199.808 33.7306V35.0456L195.241 35.0546V33.7486L199.808 33.7306Z" fill="black"/>
<path d="M193.299 33.7306V35.0456L188.733 35.0546V33.7486L193.299 33.7306Z" fill="black"/>
<path d="M186.792 33.7306V35.0456L182.225 35.0546V33.7486L186.792 33.7306Z" fill="black"/>
<path d="M180.283 33.7306V35.0456L175.717 35.0546V33.7486L180.283 33.7306Z" fill="black"/>
<path d="M173.776 33.7306V35.0456L169.209 35.0546V33.7486L173.776 33.7306Z" fill="black"/>
<path d="M167.267 33.7306V35.0456L162.701 35.0546V33.7486L167.267 33.7306Z" fill="black"/>
<path d="M160.759 33.7306V35.0456L156.192 35.0546V33.7486L160.759 33.7306Z" fill="black"/>
<path d="M154.251 33.7306V35.0456L149.685 35.0546V33.7486L154.251 33.7306Z" fill="black"/>
<path d="M147.743 33.7306V35.0456L143.177 35.0546V33.7486L147.743 33.7306Z" fill="black"/>
<path d="M141.235 33.7306V35.0456L136.669 35.0546V33.7486L141.235 33.7306Z" fill="black"/>
<path d="M134.727 33.7306V35.0456L130.161 35.0546V33.7486L134.727 33.7306Z" fill="black"/>
<path d="M128.219 33.7306V35.0456L123.652 35.0546V33.7486L128.219 33.7306Z" fill="black"/>
<path d="M121.711 33.7306V35.0456L117.145 35.0546V33.7486L121.711 33.7306Z" fill="black"/>
<path d="M115.203 33.7306V35.0456L110.636 35.0546V33.7486L115.203 33.7306Z" fill="black"/>
<path d="M108.695 33.7306V35.0456L104.129 35.0546V33.7486L108.695 33.7306Z" fill="black"/>
<path d="M102.187 33.7306V35.0456L97.6204 35.0546V33.7486L102.187 33.7306Z" fill="black"/>
<path d="M95.6789 33.7306V35.0456L91.1122 35.0546V33.7486L95.6789 33.7306Z" fill="black"/>
<path d="M89.1712 33.7306V35.0456L84.6045 35.0546V33.7486L89.1712 33.7306Z" fill="black"/>
<path d="M82.663 33.7306V35.0456L78.0962 35.0546V33.7486L82.663 33.7306Z" fill="black"/>
<path d="M76.1552 33.7306V35.0456L71.5885 35.0546V33.7486L76.1552 33.7306Z" fill="black"/>
<path d="M69.647 33.7306V35.0456L65.0803 35.0546V33.7486L69.647 33.7306Z" fill="black"/>
<path d="M63.1388 33.7306V35.0456L58.5721 35.0546V33.7486L63.1388 33.7306Z" fill="black"/>
<path d="M56.631 33.7306V35.0456L52.0643 35.0546V33.7486L56.631 33.7306Z" fill="black"/>
<path d="M50.1228 33.7306V35.0456L45.5561 35.0546V33.7486L50.1228 33.7306Z" fill="black"/>
<path d="M43.6151 33.7306V35.0456L39.0484 35.0546V33.7486L43.6151 33.7306Z" fill="black"/>
<path d="M37.1069 33.7306V35.0456L32.5401 35.0546V33.7486L37.1069 33.7306Z" fill="black"/>
<path d="M30.5986 33.7306V35.0456L26.0319 35.0546V33.7486L30.5986 33.7306Z" fill="black"/>
<path d="M24.0909 33.7306V35.0456L19.5242 35.0546V33.7486L24.0909 33.7306Z" fill="black"/>
<path d="M17.5827 33.7306V35.0456L13.016 35.0546V33.7486L17.5827 33.7306Z" fill="black"/>
<path d="M11.0749 33.7306V35.0456L6.50822 35.0546V33.7486L11.0749 33.7306Z" fill="black"/>
<path d="M4.56671 33.7306V35.0456L0 35.0546V33.7486L4.56671 33.7306Z" fill="black"/>
<path d="M94.6695 4.08144V6.19817H92.6789V4.08144H94.6695ZM94.6695 10.873V12.9717H92.6789V10.873H94.6695Z" fill="black"/>
<path d="M82.9688 13.0258V3.71224H84.5812V5.06334C84.7313 4.80513 84.9385 4.56193 85.2027 4.33374C85.4729 4.10556 85.7972 3.92241 86.1755 3.7843C86.5598 3.64618 87.0011 3.57713 87.4995 3.57713C88.088 3.57713 88.6285 3.69422 89.1209 3.92841C89.6193 4.1626 90.0156 4.5289 90.3098 5.02731C90.6101 5.51971 90.7602 6.15623 90.7602 6.93686V13.0258H89.0938V7.09899C89.0938 6.3724 88.9017 5.83496 88.5174 5.48668C88.1391 5.13239 87.6467 4.95525 87.0402 4.95525C86.6198 4.95525 86.2265 5.0243 85.8602 5.16242C85.4939 5.29452 85.1967 5.49869 84.9685 5.77491C84.7403 6.04513 84.6262 6.38741 84.6262 6.80175V13.0258H82.9688Z" fill="black"/>
<path d="M76.8556 13.2041C75.9969 13.2041 75.2463 13.0209 74.6037 12.6546C73.9612 12.2823 73.4628 11.7389 73.1085 11.0243C72.7542 10.3097 72.5771 9.43602 72.5771 8.40318C72.5771 7.43039 72.7422 6.57769 73.0725 5.8451C73.4028 5.1125 73.8862 4.54504 74.5227 4.14271C75.1652 3.73438 75.9428 3.53022 76.8556 3.53022C77.7143 3.53022 78.4589 3.71937 79.0894 4.09768C79.7259 4.46998 80.2183 5.01943 80.5666 5.74602C80.9149 6.47261 81.089 7.35833 81.089 8.40318C81.089 9.35195 80.9269 10.1866 80.6026 10.9072C80.2844 11.6278 79.81 12.1923 79.1795 12.6006C78.555 13.0029 77.7803 13.2041 76.8556 13.2041ZM76.8556 11.889C77.414 11.889 77.8854 11.7479 78.2697 11.4657C78.654 11.1834 78.9453 10.7781 79.1434 10.2497C79.3416 9.72125 79.4407 9.09374 79.4407 8.36715C79.4407 7.70061 79.3536 7.10312 79.1795 6.57469C79.0053 6.04026 78.7261 5.61691 78.3418 5.30466C77.9635 4.9924 77.4681 4.83628 76.8556 4.83628C76.2911 4.83628 75.8137 4.97739 75.4234 5.25962C75.0331 5.53585 74.7358 5.93817 74.5317 6.4666C74.3335 6.99503 74.2344 7.62855 74.2344 8.36715C74.2344 9.02168 74.3245 9.61616 74.5047 10.1506C74.6848 10.685 74.967 11.1084 75.3513 11.4206C75.7357 11.7329 76.2371 11.889 76.8556 11.889Z" fill="black"/>
<path d="M70.5231 3.70983V13.0234H68.9108V3.70983H70.5231ZM70.5592 0.00781886V1.73723H68.8568V0.00781886H70.5592Z" fill="black"/>
<path d="M66.6287 4.92801H64.53V10.7197C64.53 11.05 64.563 11.2932 64.6291 11.4493C64.7011 11.5994 64.8182 11.6955 64.9804 11.7375C65.1485 11.7796 65.3767 11.8006 65.6649 11.8006H66.6827V12.9175C66.5686 12.9595 66.3945 12.9956 66.1603 13.0256C65.9321 13.0556 65.6469 13.0706 65.3046 13.0706C64.6621 13.0706 64.1637 12.9836 63.8094 12.8094C63.4551 12.6353 63.2059 12.3771 63.0618 12.0348C62.9237 11.6925 62.8546 11.2722 62.8546 10.7738V4.92801H61.3414V3.71202H62.8997L63.305 1.00081H64.53V3.70301H66.6287V4.92801Z" fill="black"/>
<path d="M51.7999 15.9243V3.71036H53.4573L53.4753 5.33168C53.5834 5.13952 53.7215 4.93836 53.8896 4.72819C54.0638 4.51802 54.274 4.32286 54.5202 4.14271C54.7724 3.96257 55.0636 3.81545 55.3939 3.70135C55.7301 3.58726 56.1115 3.53022 56.5378 3.53022C57.2824 3.53022 57.9369 3.70135 58.5014 4.04363C59.0719 4.37991 59.5162 4.89633 59.8345 5.59289C60.1527 6.28946 60.3119 7.17218 60.3119 8.24105C60.3119 9.30992 60.1557 10.2137 59.8435 10.9523C59.5372 11.6848 59.0929 12.2433 58.5104 12.6276C57.9279 13.0119 57.2254 13.2041 56.4027 13.2041C55.9884 13.2041 55.6191 13.144 55.2948 13.0239C54.9765 12.9098 54.6973 12.7597 54.4571 12.5736C54.2229 12.3814 54.0248 12.1772 53.8626 11.9611C53.7065 11.7449 53.5774 11.5377 53.4753 11.3396V15.9243H51.7999ZM56.0874 11.907C56.8561 11.907 57.4836 11.6158 57.97 11.0333C58.4564 10.4448 58.6996 9.5321 58.6996 8.29509C58.6996 7.23223 58.4774 6.38854 58.033 5.76403C57.5887 5.13952 56.9401 4.82727 56.0874 4.82727C55.2227 4.82727 54.5682 5.14853 54.1238 5.79105C53.6795 6.42757 53.4573 7.26225 53.4573 8.29509C53.4573 8.96163 53.5564 9.56813 53.7545 10.1146C53.9527 10.661 54.2469 11.0964 54.6373 11.4206C55.0276 11.7449 55.511 11.907 56.0874 11.907Z" fill="black"/>
<path d="M49.0638 3.70983V13.0234H47.4515V3.70983H49.0638ZM49.0998 0.00781886V1.73723H47.3974V0.00781886H49.0998Z" fill="black"/>
<path d="M40.5784 13.0239V3.71036H42.1637V5.50282C42.3198 5.05846 42.539 4.69216 42.8212 4.40393C43.1035 4.10969 43.4247 3.89051 43.785 3.74639C44.1513 3.60227 44.5296 3.53022 44.9199 3.53022C45.0581 3.53022 45.1932 3.53922 45.3253 3.55724C45.4574 3.57525 45.5595 3.60528 45.6315 3.64731V5.25962C45.5415 5.21759 45.4244 5.19057 45.2802 5.17856C45.1421 5.16054 45.025 5.15153 44.929 5.15153C44.5566 5.12751 44.2084 5.15153 43.8841 5.22359C43.5598 5.28965 43.2746 5.40674 43.0284 5.57488C42.7822 5.74302 42.5871 5.9652 42.4429 6.24142C42.3048 6.51164 42.2358 6.84191 42.2358 7.23223V13.0239H40.5784Z" fill="black"/>
<path d="M34.8788 3.53022C35.5453 3.53022 36.1458 3.65932 36.6802 3.91753C37.2147 4.16974 37.65 4.53003 37.9863 4.99841C38.3286 5.46679 38.5418 6.01924 38.6258 6.65576H37.1486C37.0946 6.33149 36.9685 6.03425 36.7703 5.76403C36.5782 5.49381 36.3229 5.27764 36.0047 5.1155C35.6864 4.95337 35.3141 4.87231 34.8878 4.87231C34.0891 4.87231 33.4406 5.16054 32.9422 5.73701C32.4438 6.31348 32.1946 7.1962 32.1946 8.38516C32.1946 9.46004 32.4228 10.3217 32.8791 10.9703C33.3415 11.6128 34.0201 11.934 34.9148 11.934C35.3412 11.934 35.7104 11.853 36.0227 11.6909C36.341 11.5227 36.5962 11.3035 36.7883 11.0333C36.9805 10.7571 37.1036 10.4629 37.1576 10.1506H38.6078C38.5297 10.7751 38.3196 11.3155 37.9773 11.7719C37.635 12.2283 37.1967 12.5826 36.6622 12.8348C36.1338 13.081 35.5393 13.2041 34.8788 13.2041C34.0441 13.2041 33.3025 13.0209 32.654 12.6546C32.0114 12.2883 31.507 11.7479 31.1407 11.0333C30.7744 10.3187 30.5913 9.44202 30.5913 8.40318C30.5913 7.43039 30.7564 6.5807 31.0867 5.8541C31.423 5.12151 31.9094 4.55104 32.5459 4.14271C33.1884 3.73438 33.966 3.53022 34.8788 3.53022Z" fill="black"/>
<path d="M25.5551 13.2041C24.9065 13.2041 24.303 13.105 23.7446 12.9068C23.1921 12.7027 22.7328 12.3874 22.3665 11.9611C22.0002 11.5287 21.769 10.9793 21.6729 10.3127H23.1861C23.2702 10.679 23.4203 10.9853 23.6365 11.2315C23.8587 11.4717 24.1349 11.6548 24.4652 11.7809C24.7954 11.901 25.1557 11.9611 25.5461 11.9611C26.1706 11.9611 26.675 11.844 27.0593 11.6098C27.4436 11.3756 27.6358 11.0153 27.6358 10.5289C27.6358 10.1866 27.5337 9.91341 27.3295 9.70924C27.1313 9.49907 26.8221 9.34595 26.4017 9.24987L24.4742 8.77248C23.7236 8.59233 23.1231 8.3101 22.6727 7.92579C22.2223 7.54148 21.9972 7.00404 21.9972 6.31348C21.9912 5.76703 22.1203 5.28664 22.3845 4.87231C22.6487 4.45797 23.045 4.1307 23.5734 3.89051C24.1019 3.65031 24.7594 3.53022 25.5461 3.53022C26.5549 3.53022 27.3685 3.7584 27.987 4.21477C28.6115 4.66514 28.9358 5.32868 28.9598 6.20539H27.4916C27.4316 5.76103 27.2304 5.40974 26.8881 5.15153C26.5519 4.88732 26.0985 4.75521 25.528 4.75521C24.9336 4.75521 24.4502 4.87531 24.0779 5.1155C23.7056 5.34969 23.5194 5.71599 23.5194 6.2144C23.5194 6.54467 23.6515 6.80588 23.9157 6.99804C24.1799 7.18419 24.5703 7.34031 25.0867 7.46642L26.9512 7.9348C27.3835 8.04889 27.7378 8.19901 28.0141 8.38516C28.2963 8.57131 28.5185 8.77848 28.6806 9.00667C28.8487 9.23485 28.9658 9.47505 29.0319 9.72725C29.1039 9.97346 29.14 10.2106 29.14 10.4388C29.14 11.0093 28.9959 11.5017 28.7076 11.916C28.4254 12.3244 28.0171 12.6426 27.4826 12.8708C26.9542 13.093 26.3117 13.2041 25.5551 13.2041Z" fill="black"/>
<path d="M13.6404 8.75446C13.6404 9.34294 13.7365 9.87738 13.9286 10.3578C14.1268 10.8322 14.424 11.2105 14.8203 11.4927C15.2227 11.7749 15.7241 11.916 16.3246 11.916C16.9191 11.916 17.4295 11.7779 17.8558 11.5017C18.2882 11.2255 18.5644 10.8261 18.6845 10.3037H20.2608C20.1467 10.9342 19.8945 11.4657 19.5042 11.898C19.1138 12.3304 18.6425 12.6576 18.09 12.8798C17.5376 13.096 16.9611 13.2041 16.3606 13.2041C15.4899 13.2041 14.7243 13.0149 14.0637 12.6366C13.4032 12.2583 12.8868 11.7149 12.5145 11.0063C12.1422 10.2977 11.956 9.44803 11.956 8.45722C11.956 7.47843 12.1241 6.61973 12.4604 5.88113C12.7967 5.14253 13.2831 4.56606 13.9196 4.15172C14.5621 3.73738 15.3338 3.53022 16.2345 3.53022C17.1112 3.53022 17.8528 3.71937 18.4593 4.09768C19.0658 4.47598 19.5252 5.01042 19.8374 5.70098C20.1557 6.38554 20.3148 7.1992 20.3148 8.14197V8.75446H13.6404ZM13.6494 7.62855H18.7115C18.7115 7.09411 18.6214 6.61372 18.4413 6.18738C18.2611 5.75502 17.9849 5.41575 17.6126 5.16955C17.2463 4.91734 16.7839 4.79124 16.2255 4.79124C15.643 4.79124 15.1596 4.93236 14.7753 5.21458C14.397 5.49081 14.1118 5.8481 13.9196 6.28646C13.7335 6.71881 13.6434 7.16617 13.6494 7.62855Z" fill="black"/>
<path d="M0.603518 0C0.645552 0 0.771655 0.00300246 0.981826 0.00900763C1.198 0.00900763 1.45921 0.00900763 1.76546 0.00900763C2.07171 0.00300246 2.38997 0.00300246 2.72024 0.00900763C3.05051 0.00900763 3.35376 0.0120099 3.62998 0.0180143C5.22728 0.0420342 6.52133 0.303247 7.51214 0.801652C8.50895 1.29405 9.23854 2.01164 9.70092 2.9544C10.1693 3.89717 10.4035 5.05611 10.4035 6.43123C10.4035 7.8724 10.1513 9.08239 9.64687 10.0612C9.14847 11.04 8.38585 11.7786 7.35901 12.277C6.33818 12.7754 5.03812 13.0246 3.45884 13.0246H0.603518V0ZM2.31491 1.43217V11.5924H3.45884C4.53371 11.5924 5.45847 11.4273 6.2331 11.097C7.00773 10.7608 7.60221 10.2173 8.01655 9.4667C8.43689 8.71609 8.64706 7.71327 8.64706 6.45825C8.64706 5.20323 8.44289 4.20942 8.03456 3.47683C7.63224 2.74423 7.04976 2.22181 6.28714 1.90955C5.52452 1.59129 4.60577 1.43217 3.5309 1.43217H2.31491Z" fill="black"/>
</svg>
