<svg width="11" height="12" viewBox="0 0 11 12" fill="none" xmlns="http://www.w3.org/2000/svg">
<path d="M0.783391 11.7697C0.584269 11.7697 0.385146 11.643 0.227943 11.3715C-0.0759811 10.8465 -0.0759811 9.97767 0.227943 9.45272L3.58156 3.66024C3.74924 3.37062 3.96933 3.22581 4.21037 3.26201C4.44093 3.29821 4.65054 3.51543 4.78678 3.85936L5.92911 6.828L9.64957 0.401972C9.95349 -0.122971 10.4565 -0.122971 10.7605 0.401972C11.0644 0.926916 11.0644 1.79579 10.7605 2.32073L6.3588 9.92336C6.19112 10.213 5.97103 10.3578 5.72999 10.3216C5.49943 10.2854 5.28982 10.0682 5.15358 9.72424L4.01125 6.7556L1.33884 11.3715C1.18164 11.643 0.982514 11.7697 0.783391 11.7697Z" fill="#16C098"/>
<path d="M10.214 6.33552C9.78431 6.33552 9.42799 5.72007 9.42799 4.97791V2.71522H8.11797C7.68828 2.71522 7.33196 2.09977 7.33196 1.35761C7.33196 0.615451 7.68828 0 8.11797 0H10.214C10.6437 0 11 0.615451 11 1.35761V4.97791C11 5.72007 10.6437 6.33552 10.214 6.33552Z" fill="#16C098"/>
</svg>
