<svg width="26" height="24" viewBox="0 0 26 24" fill="none" xmlns="http://www.w3.org/2000/svg">
<path d="M12.3966 22.2216C5.56336 22.2216 0 17.2353 0 11.1108C0 4.98631 5.56336 0 12.3966 0C19.2299 0 24.7932 4.98631 24.7932 11.1108C24.7932 17.2353 19.2299 22.2216 12.3966 22.2216ZM12.3966 1.62597C6.55509 1.62597 1.81414 5.88602 1.81414 11.1108C1.81414 16.3356 6.55509 20.5956 12.3966 20.5956C18.2381 20.5956 22.9791 16.3356 22.9791 11.1108C22.9791 5.88602 18.2381 1.62597 12.3966 1.62597Z" fill="#E31212"/>
<path d="M25.096 23.3029C24.8662 23.3029 24.6364 23.2271 24.455 23.0645L22.0361 20.8965C21.6854 20.5821 21.6854 20.0618 22.0361 19.7475C22.3869 19.4331 22.9674 19.4331 23.3181 19.7475L25.737 21.9154C26.0877 22.2298 26.0877 22.7501 25.737 23.0645C25.5555 23.2271 25.3258 23.3029 25.096 23.3029Z" fill="#E31212"/>
</svg>
