<svg width="28" height="28" viewBox="0 0 28 28" fill="none" xmlns="http://www.w3.org/2000/svg">
<path opacity="0.4" d="M14 8.44141V11.7714" stroke="white" stroke-width="1.5" stroke-miterlimit="10" stroke-linecap="round"/>
<path d="M14.0209 4C10.3409 4 7.36087 6.98 7.36087 10.66V12.76C7.36087 13.44 7.08087 14.46 6.73087 15.04L5.46087 17.16C4.68087 18.47 5.22087 19.93 6.66087 20.41C11.4422 22 16.6096 22 21.3909 20.41C21.7064 20.3048 21.9942 20.13 22.2331 19.8986C22.4719 19.6671 22.6558 19.385 22.771 19.073C22.8862 18.761 22.9298 18.4271 22.8986 18.096C22.8674 17.7649 22.7623 17.445 22.5909 17.16L21.3209 15.04C20.9709 14.46 20.6909 13.43 20.6909 12.76V10.66C20.6809 7 17.6809 4 14.0209 4Z" stroke="white" stroke-width="1.5" stroke-miterlimit="10" stroke-linecap="round"/>
<path opacity="0.4" d="M17.3299 20.8203C17.3299 22.6503 15.8299 24.1503 13.9999 24.1503C13.0899 24.1503 12.2499 23.7703 11.6499 23.1703C11.0499 22.5703 10.6699 21.7303 10.6699 20.8203" stroke="white" stroke-width="1.5" stroke-miterlimit="10"/>
</svg>
