<svg width="20" height="20" viewBox="0 0 20 20" fill="none" xmlns="http://www.w3.org/2000/svg">
<path d="M17.1583 18.3346C17.1583 15.1096 13.95 12.5013 10 12.5013C6.05001 12.5013 2.84167 15.1096 2.84167 18.3346M10 10.0013C11.1051 10.0013 12.1649 9.56232 12.9463 8.78091C13.7277 7.99951 14.1667 6.9397 14.1667 5.83464C14.1667 4.72957 13.7277 3.66976 12.9463 2.88836C12.1649 2.10696 11.1051 1.66797 10 1.66797C8.89494 1.66797 7.83513 2.10696 7.05373 2.88836C6.27233 3.66976 5.83334 4.72957 5.83334 5.83464C5.83334 6.9397 6.27233 7.99951 7.05373 8.78091C7.83513 9.56232 8.89494 10.0013 10 10.0013V10.0013Z" stroke="#A18E80" stroke-width="1.5" stroke-linecap="round" stroke-linejoin="round"/>
</svg>
