<svg width="19" height="22" viewBox="0 0 19 22" fill="none" xmlns="http://www.w3.org/2000/svg">
<path d="M18.8652 19.3637L17.264 6.31288C17.2162 6.0773 17.0284 5.88957 16.7929 5.88957H13.353V4.56993C13.353 1.83679 11.8456 0 9.58364 0C7.32167 0 5.81432 1.83679 5.81432 4.56993V5.88957H2.09286C1.85728 5.88957 1.66955 6.0773 1.6217 6.31288L0.0204878 19.3637C-0.0733778 20.0226 0.162205 20.7293 0.58551 21.2005C1.00882 21.7195 1.66957 22.0011 2.32845 22.0011H16.5115C17.1704 22.0011 17.8311 21.7177 18.2544 21.2005C18.7237 20.7312 18.9593 20.0244 18.8655 19.3637H18.8652ZM6.75674 4.61575C6.75674 2.91879 7.51136 0.988147 9.58374 0.988147C11.6561 0.988147 12.4107 2.92068 12.4107 4.61575V5.93539H6.75674V4.61575ZM17.5936 20.5892C17.3101 20.8726 16.9347 21.0604 16.5574 21.0604H2.32863C1.90532 21.0604 1.52803 20.8726 1.29245 20.5892C1.05686 20.3058 0.915147 19.8825 0.962999 19.4592L2.51638 6.87762H16.3677L17.9229 19.5053C17.9708 19.8826 17.8291 20.3059 17.5935 20.5894L17.5936 20.5892Z" fill="white"/>
</svg>
