<svg width="22" height="22" viewBox="0 0 22 22" fill="none" xmlns="http://www.w3.org/2000/svg">
<g filter="url(#filter0_d_366_3781)">
<path d="M3.32773 12.8239C4.10408 9.09586 7.34949 6.44694 11.0002 6.44694C14.6497 6.44694 17.8951 9.09586 18.6726 12.8239C18.7034 12.9719 18.7917 13.1015 18.9181 13.1843C19.0444 13.2672 19.1985 13.2964 19.3465 13.2656C19.4944 13.2348 19.6241 13.1465 19.7069 13.0201C19.7897 12.8937 19.8189 12.7396 19.7882 12.5917C18.9037 8.35138 15.2041 5.30859 11.0002 5.30859C6.79626 5.30859 3.09665 8.35138 2.21215 12.5917C2.18136 12.7396 2.21059 12.8937 2.29342 13.0201C2.37625 13.1465 2.5059 13.2348 2.65383 13.2656C2.80177 13.2964 2.95587 13.2672 3.08225 13.1843C3.20864 13.1015 3.29694 12.9719 3.32773 12.8239ZM10.9888 8.72362C12.0454 8.72362 13.0588 9.14338 13.806 9.89056C14.5532 10.6377 14.973 11.6511 14.973 12.7078C14.973 13.7645 14.5532 14.7779 13.806 15.5251C13.0588 16.2723 12.0454 16.692 10.9888 16.692C9.9321 16.692 8.9187 16.2723 8.17152 15.5251C7.42434 14.7779 7.00457 13.7645 7.00457 12.7078C7.00457 11.6511 7.42434 10.6377 8.17152 9.89056C8.9187 9.14338 9.9321 8.72362 10.9888 8.72362Z" fill="#6A707C"/>
</g>
<defs>
<filter id="filter0_d_366_3781" x="-4" y="0" width="30" height="30" filterUnits="userSpaceOnUse" color-interpolation-filters="sRGB">
<feFlood flood-opacity="0" result="BackgroundImageFix"/>
<feColorMatrix in="SourceAlpha" type="matrix" values="0 0 0 0 0 0 0 0 0 0 0 0 0 0 0 0 0 0 127 0" result="hardAlpha"/>
<feOffset dy="4"/>
<feGaussianBlur stdDeviation="2"/>
<feComposite in2="hardAlpha" operator="out"/>
<feColorMatrix type="matrix" values="0 0 0 0 0 0 0 0 0 0 0 0 0 0 0 0 0 0 0.25 0"/>
<feBlend mode="normal" in2="BackgroundImageFix" result="effect1_dropShadow_366_3781"/>
<feBlend mode="normal" in="SourceGraphic" in2="effect1_dropShadow_366_3781" result="shape"/>
</filter>
</defs>
</svg>
