<svg width="20" height="19" viewBox="0 0 20 19" fill="none" xmlns="http://www.w3.org/2000/svg">
<path d="M18.1596 1.61979C17.666 1.10601 17.08 0.698504 16.435 0.420572C15.79 0.142641 15.0988 -0.000272456 14.4008 3.89946e-07C13.7027 0.000273236 13.0116 0.143727 12.3668 0.422162C11.722 0.700598 11.1363 1.10856 10.6431 1.62273L9.99927 2.30106L9.3608 1.6242L9.35665 1.61988C8.86329 1.10633 8.27759 0.698968 7.63299 0.421041C6.98839 0.143113 6.29751 6.58221e-05 5.5998 6.58221e-05C4.90208 6.58221e-05 4.2112 0.143113 3.5666 0.421041C2.922 0.698968 2.3363 1.10633 1.84294 1.61988L1.55613 1.91843C0.559755 2.95556 0 4.36222 0 5.82895C0 7.29568 0.559755 8.70234 1.55613 9.73948L9.12599 17.6189L9.98084 18.5512L10.0012 18.53L10.0233 18.553L10.8243 17.6734L18.4464 9.73935C19.4413 8.70139 20 7.29504 20 5.82882C20 4.36261 19.4413 2.95626 18.4464 1.9183L18.1596 1.61979ZM17.507 8.76173L10.0012 16.5747L2.49528 8.76173C1.748 7.98388 1.32819 6.92889 1.32819 5.82884C1.32819 4.7288 1.748 3.67381 2.49528 2.89596L2.78214 2.5974C3.52905 1.81994 4.54197 1.38298 5.59826 1.38257C6.65455 1.38215 7.66778 1.81832 8.41526 2.5952L9.9964 4.27102L11.5851 2.5974C11.9551 2.21225 12.3944 1.90672 12.8778 1.69828C13.3613 1.48983 13.8794 1.38255 14.4027 1.38255C14.926 1.38255 15.4441 1.48983 15.9276 1.69828C16.4111 1.90672 16.8503 2.21225 17.2203 2.5974L17.5072 2.89591C18.2533 3.67441 18.6723 4.72919 18.6723 5.82886C18.6723 6.92853 18.2532 7.98329 17.507 8.76173Z" fill="black"/>
</svg>
