<svg width="16" height="20" viewBox="0 0 16 20" fill="none" xmlns="http://www.w3.org/2000/svg">
<path d="M7.95083 0.19843L5.97542 5.656H4C3.67214 5.656 3.35246 5.68519 3.04099 5.76302L3.86066 3.42822L3.89345 3.34067L3.94263 3.18502C3.96722 3.11692 3.98361 3.05855 4.0082 3.00991C4.95902 0.392995 6.0246 -0.424181 7.95083 0.19843Z" fill="#FF0000"/>
<path d="M13.5164 5.92102L13.5 5.91129C13.0082 5.74591 12.5082 5.65836 12 5.65836H6.86886L8.71312 0.570459L8.73771 0.502361C8.85247 0.551002 8.97542 0.6191 9.09837 0.667742L10.9098 1.57247C11.918 2.06862 12.623 2.58422 13.0574 3.20683C13.1312 3.32357 13.1967 3.43058 13.2623 3.55705C13.3361 3.69324 13.3935 3.82944 13.4262 3.97536C13.459 4.06292 13.4836 4.14074 13.5 4.2283C13.623 4.72444 13.6312 5.28868 13.5164 5.92102Z" fill="#FF0000"/>
<path d="M8.42624 15.2294H8.63116C8.87706 15.2294 9.08198 14.9668 9.08198 14.6457C9.08198 14.2371 8.98362 14.1788 8.7705 14.0815L8.42624 13.9356V15.2294Z" fill="#FF0000"/>
<path d="M13.1557 7.31068C12.7869 7.18422 12.4016 7.11612 12 7.11612H4C3.44262 7.11612 2.91803 7.24259 2.42623 7.49552C1 8.22514 0 9.90814 0 11.8635V13.7605C0 13.994 0.0163934 14.2178 0.0409836 14.4513C0.221312 17.5449 1.61475 19.1987 4.22131 19.403C4.40984 19.4321 4.59836 19.4516 4.80328 19.4516H11.1967C14.2295 19.4516 15.8279 17.7394 15.9836 14.3345C15.9918 14.1497 16 13.9551 16 13.7605V11.8635C16 9.71357 14.7951 7.90411 13.1557 7.31068ZM9.04918 13.1282C9.42623 13.2839 9.93443 13.6146 9.93443 14.6458C9.93443 15.5311 9.35246 16.2413 8.63115 16.2413H8.42623V16.4553C8.42623 16.7374 8.23771 16.9612 8 16.9612C7.7623 16.9612 7.57377 16.7374 7.57377 16.4553V16.2413H7.5C6.71312 16.2413 6.06558 15.4533 6.06558 14.4804C6.06558 14.1983 6.2541 13.9746 6.4918 13.9746C6.72951 13.9746 6.91804 14.1983 6.91804 14.4804C6.91804 14.889 7.18033 15.2295 7.5 15.2295H7.57377V13.5854L6.95082 13.3228C6.57377 13.1671 6.06558 12.8364 6.06558 11.8052C6.06558 10.9199 6.64754 10.2097 7.36885 10.2097H7.57377V9.99569C7.57377 9.71357 7.7623 9.48982 8 9.48982C8.23771 9.48982 8.42623 9.71357 8.42623 9.99569V10.2097H8.5C9.28689 10.2097 9.93443 10.9977 9.93443 11.9705C9.93443 12.2527 9.7459 12.4764 9.5082 12.4764C9.27049 12.4764 9.08197 12.2527 9.08197 11.9705C9.08197 11.562 8.81967 11.2215 8.5 11.2215H8.42623V12.8655L9.04918 13.1282Z" fill="#FF0000"/>
<path d="M6.91804 11.8057C6.91804 12.2143 7.0164 12.2727 7.22952 12.37L7.57378 12.5159V11.222H7.36886C7.11476 11.222 6.91804 11.4847 6.91804 11.8057Z" fill="#FF0000"/>
</svg>
